<?xml version="1.0" encoding="iso-8859-1"?>
<!-- Generator: Adobe Illustrator 19.0.0, SVG Export Plug-In . SVG Version: 6.00 Build 0)  -->
<svg version="1.1" id="Capa_1" xmlns="http://www.w3.org/2000/svg" xmlns:xlink="http://www.w3.org/1999/xlink" x="0px" y="0px"
	 viewBox="0 0 512 512" style="enable-background:new 0 0 512 512;" xml:space="preserve">
<g>
	<g>
		<g>
			<path d="M256,53.333c-64.688,0-117.333,52.635-117.333,117.333S191.313,288,256,288s117.333-52.635,117.333-117.333
				S320.688,53.333,256,53.333z M256,266.667c-52.938,0-96-43.063-96-96s43.063-96,96-96s96,43.063,96,96
				S308.938,266.667,256,266.667z"/>
			<path d="M291.125,184.458l-24.458,24.458v-102.25C266.667,100.771,261.896,96,256,96s-10.667,4.771-10.667,10.667v102.25
				l-24.458-24.458c-4.167-4.167-10.917-4.167-15.083,0c-4.167,4.167-4.167,10.917,0,15.083l42.667,42.667
				c2.083,2.083,4.813,3.125,7.542,3.125s5.458-1.042,7.542-3.125l42.667-42.667c4.167-4.167,4.167-10.917,0-15.083
				C302.042,180.292,295.292,180.292,291.125,184.458z"/>
			<path d="M256,0C161.896,0,85.333,76.563,85.333,170.667c0,28.26,7.063,56.271,20.479,81.115L246.666,506.5
				c1.875,3.396,5.459,5.5,9.334,5.5s7.458-2.104,9.333-5.5l140.896-254.813c13.375-24.75,20.438-52.76,20.438-81.021
				C426.667,76.563,350.104,0,256,0z M387.521,241.448L256,479.292l-131.479-237.75c-11.667-21.635-17.854-46.146-17.854-70.875
				c0-82.344,67-149.333,149.333-149.333s149.333,66.99,149.333,149.333C405.333,195.396,399.146,219.906,387.521,241.448z"/>
		</g>
	</g>
</g>
<g>
</g>
<g>
</g>
<g>
</g>
<g>
</g>
<g>
</g>
<g>
</g>
<g>
</g>
<g>
</g>
<g>
</g>
<g>
</g>
<g>
</g>
<g>
</g>
<g>
</g>
<g>
</g>
<g>
</g>
</svg>
